# xmcd
#
# Track frame offsets: 
#        150
#        10598
#        21422
#        36707
#        51532
#        63466
#        73008
#        86602
#        100391
#        106982
#        121079
#        133975
#        143743
#        153254
#        168503
#        176096
#        191115
#        199337
#        208640
#        222694
#        230575
#        241213
#        250258
#        264347
#        272912
#        285389
#        297344
#        305565
#        314629
#        329721
#
# Disc length: 4503 seconds
#
# Revision: 2
# Processed by: cddbd v1.5.2PL0 Copyright (c) Steve Scherf et al.
# Submitted via: ExactAudioCopy v0.99pb4
#
DISCID=e411951e
DTITLE=Sons Of The Pioneers - Memories Of The Range, The Standard Tran
DTITLE=scriptions Part 2 Vol.  4
DYEAR=1999
DGENRE=Country
TTITLE0=Oh There's Power (Power In The Blood) 1935
TTITLE1=Leaning On The Everlasting Arm 1935
TTITLE2=I Need Thee 1935
TTITLE3=Prairie Schooner (Over The Santa Fe Trail) 1935
TTITLE4=Nelly Bly 1935
TTITLE5=Oh, Lemuel 1935
TTITLE6=Ring Ring De Banjo 1935
TTITLE7=Auld Lange Syne 1935
TTITLE8=Billy Boy 1935
TTITLE9=Memories Of The Range 1935
TTITLE10=Birmingham Jail 1935
TTITLE11=New River Train 1935
TTITLE12=In The Saddle (Ridin' Ropin') 1936
TTITLE13=Give My Love To Nell 1936Give My Love To Nell 1936
TTITLE14=Listen To The Mocking Bird 1936
TTITLE15=Whispering Hope 1936
TTITLE16=Mellow Mountain Moon 1936
TTITLE17=Sagebrush Stomp 1936
TTITLE18=Bury Me Beneath The Willow 1936
TTITLE19=When The Bloom Is On The Sage 1936
TTITLE20=Rock Me To Sleep In My Rocky Mountain Home 1936
TTITLE21=I Want To Follow The Swallow Back Home To Colorado 1936
TTITLE22=One More Ride 1936
TTITLE23=Lane County Bachelor 1936
TTITLE24=Cool Water 1936
TTITLE25=When The Work's All Done This Fall 1936
TTITLE26=Sleepy Rio Grande 1936
TTITLE27=When It's Prayer Meetin' Time In The Hollow 1936
TTITLE28=Night-Time In Nevada (When It's Night Time In Nevada) 1936
TTITLE29=Cotton Eyed Joe 1936
EXTD=
EXTT0=
EXTT1=
EXTT2=
EXTT3=
EXTT4=
EXTT5=
EXTT6=
EXTT7=
EXTT8=
EXTT9=
EXTT10=
EXTT11=
EXTT12=
EXTT13=
EXTT14=
EXTT15=
EXTT16=
EXTT17=
EXTT18=
EXTT19=
EXTT20=
EXTT21=
EXTT22=
EXTT23=
EXTT24=
EXTT25=
EXTT26=
EXTT27=
EXTT28=
EXTT29=
PLAYORDER=
